<?xml version="1.0" encoding="UTF-8"?>
<!DOCTYPE svg PUBLIC "-//W3C//DTD SVG 1.1//EN" "http://www.w3.org/Graphics/SVG/1.1/DTD/svg11.dtd">
<!-- Creator: CorelDRAW 2018 (64-Bit) -->
<svg xmlns="http://www.w3.org/2000/svg" xml:space="preserve" width="3.61767in" height="4.5in" version="1.1" style="shape-rendering:geometricPrecision; text-rendering:geometricPrecision; image-rendering:optimizeQuality; fill-rule:evenodd; clip-rule:evenodd"
viewBox="0 0 2726.64 3391.65"
 xmlns:xlink="http://www.w3.org/1999/xlink">
 <defs>
  <style type="text/css">
   <![CDATA[
    .fil11 {fill:#FEFEFE}
    .fil10 {fill:#FEFEFE}
    .fil7 {fill:#0AC5E6}
    .fil8 {fill:#0B94C2}
    .fil5 {fill:#303348}
    .fil2 {fill:#40475A}
    .fil3 {fill:#40475A}
    .fil1 {fill:#D2E3FF}
    .fil0 {fill:#D2E3FF}
    .fil9 {fill:#EAD0C7}
    .fil6 {fill:#EAD0C7}
    .fil4 {fill:#EEE343}
    .fil12 {fill:#0AC5E6;fill-rule:nonzero}
   ]]>
  </style>
 </defs>
 <g id="Layer_x0020_1">
  <metadata id="CorelCorpID_0Corel-Layer"/>
  <g id="_1978845662224">
   <path class="fil0" d="M839.4 716.43l-698.91 0c-17.62,0 -32.03,14.41 -32.03,32.03l0 216.23c0,17.62 14.41,32.03 32.03,32.03l655.83 0c32.3,56.5 82.57,84.76 150.81,84.74 -69.29,-28.66 -76.21,-79.02 -75.69,-116.77 0.2,-14.53 0.42,-26.81 0,-37.55l0 -178.69c0,-17.62 -14.41,-32.03 -32.03,-32.03z"/>
   <path class="fil1" d="M1298.93 997.65c-305.76,435.99 -384.08,737.38 -599.05,797.29 -340.81,94.97 -654.64,148.04 -696.46,515.26 -51.72,454.1 495.29,676.09 931.69,767.06 513.53,107.05 913.11,7.86 1199.72,-301.01 568.26,-612.38 296.71,-1570.95 -354.15,-1907.38 -183.72,-94.96 -378.75,-18.08 -481.74,128.78z"/>
   <path class="fil2" d="M754.56 1739.35c-84.75,-9.7 -123.86,-111.19 -82.65,-188.61 28.65,-53.82 60.95,-85.17 95.03,-95.04 49.15,-14.22 91.25,-58.85 136.04,-127.84 45.75,-70.46 129.15,-78.74 231.76,-27 104.45,52.67 119.29,83.97 67.34,134.34 -23.84,23.12 -11.63,89.93 3.08,154.5 29.6,129.86 -31.27,161.6 -165.44,156.55l-285.15 -6.89z"/>
   <path class="fil3" d="M1654.37 3081c11.01,-2.22 21.95,-4.53 32.82,-6.96l0 -907.15 -32.82 0 0 914.11z"/>
   <path class="fil3" d="M949.44 3089.68c11.9,1.65 23.74,3.21 35.53,4.7l0 -490.23 -35.53 0 0 485.53z"/>
   <path class="fil4" d="M754.56 1739.34l-215.45 5.07 69.2 705.32c6.49,66.21 84.13,130.75 145.47,131.62l453.75 6.45 11.15 -44.89c-129.46,-15.97 -255.98,-22.03 -358.92,-50.59 -134.91,-37.43 -174.19,-162.19 -90.25,-325.42 -22.13,-142.21 -31.28,-285.15 -14.95,-427.55l0 -0z"/>
   <path class="fil3" d="M539.1 1744.41c-9.36,-20.55 -28.16,-22.75 -25.14,9l68.19 715.97c6.31,66.22 84.14,130.75 145.47,131.62l474.94 6.76 4.95 -19.96 -453.75 -6.45c-61.34,-0.87 -138.98,-65.41 -145.47,-131.62l-69.2 -705.32z"/>
   <path class="fil3" d="M769.5 2166.9c-83.95,163.23 -44.66,287.99 90.25,325.42 102.94,28.56 229.45,34.62 358.92,50.59l-159.67 643.17c30.84,6.63 59.78,10.17 82.73,3.54l277.26 -626.21c26.45,-59.74 29.05,-122.08 -16.4,-150.75l-389.69 -245.78 -243.39 0.01z"/>
   <path class="fil5" d="M1012.89 2166.89l35.59 0.26 405.4 213.35c74.36,39.13 101.9,84.88 98.45,150.4l-32.12 608.45c-25.64,6.36 -53.67,5.45 -79.99,-2.74l-60.76 -483.93 39.52 -89.27c26.45,-59.74 29.05,-122.08 -16.4,-150.75l-389.69 -245.78z"/>
   <path class="fil6" d="M1141.73 3189.62c-1.11,22.74 -19.69,32.12 -42.44,31.15 -22.75,-0.97 -45.23,-7.14 -40.29,-34.69 30.84,6.63 59.78,10.17 82.73,3.54z"/>
   <path class="fil6" d="M1440.22 3136.61c21.22,7.82 47.2,8.73 77.94,2.74 -2.16,20.41 -19.05,30.88 -39.56,30.16 -20.51,-0.72 -37.66,-12.39 -38.38,-32.9z"/>
   <path class="fil7" d="M1467.82 3168.04c16.07,6.52 29.16,-1.68 41.91,-9.59 20.72,-12.87 39.49,-11.73 46.47,-0.01 17.21,28.85 43.55,48.24 85.46,50.59 36.33,2.04 55.98,14.77 58.79,42.39l-261.84 1.37 0 -86.14c0,-9.4 10.75,-6.09 29.21,1.4z"/>
   <path class="fil7" d="M1069.93 3213.16c14.98,8.71 40.97,11.56 53.71,3.65 20.72,-12.86 38.62,-12.67 45.61,-0.95 17.21,28.85 43.55,48.24 85.46,50.59 36.33,2.04 55.98,14.77 58.8,42.39l-293.98 0 21.2 -97.08c2,-9.18 12.81,-8.13 29.21,1.4z"/>
   <path class="fil7" d="M1012.89 2166.89c67.26,-108.44 98.01,-232.1 98.6,-370.99 0.36,-84.19 -29.34,-135.07 -94.76,-157.12 -2.84,18.22 -7.4,36.02 -23.91,44.23 -16.52,8.22 -36.42,5.15 -49.71,-7.63 -13.29,-12.79 -12.65,-31.19 -9.54,-49.38 -103.25,-2.47 -169.59,31.06 -179.02,113.34 -16.33,142.4 -7.18,285.34 14.95,427.55l243.39 -0.01z"/>
   <path class="fil8" d="M839.24 1674.02c59.67,-12.52 99.4,46.65 134.43,187.02 -107.56,26.44 -154.25,37.91 -154.25,37.91 -47.36,-141.63 -40.43,-212.29 19.82,-224.93z"/>
   <path class="fil8" d="M1107.88 1748.3c4.9,23.57 4.83,65.91 -0.21,127.02 22.75,1.97 40.37,-2.81 52.88,-14.34 0,0 -17.56,-37.56 -52.67,-112.68z"/>
   <path class="fil6" d="M1428.65 2067.87c-236.39,-9.74 -385.41,-24.61 -440.38,-35.3 -14.97,-59.73 -28.88,-114.68 -41.73,-164.87 -52.92,13.01 -89.47,21.99 -109.65,26.95 32.17,78.44 57.1,137.62 74.8,177.57 11.9,28.21 31.5,42.79 58.79,43.75 239.02,-0.73 390.35,-0.73 441.44,-0.7l16.72 -47.4z"/>
   <path class="fil6" d="M1107.67 1875.32c9.25,1.17 19.71,0.36 31.38,-2.42 11.92,52.97 22.5,107.33 31.76,163.09 46.77,8.98 117.84,18.92 213.23,29.81 -210.48,-8.47 -315.71,-12.7 -315.71,-12.7 20.74,-57.33 33.85,-116.59 39.35,-177.79z"/>
   <path class="fil9" d="M1016.74 1638.77c-2.84,18.22 -7.4,36.03 -23.91,44.24 -16.52,8.22 -36.42,5.15 -49.71,-7.63 -13.29,-12.79 -12.65,-31.19 -9.54,-49.38 12.77,-74.71 5.45,-89.78 12.29,-113.02 -14.72,6.04 -31.65,1.81 -41.82,-10.43 -10.16,-12.24 -11.19,-29.66 -2.55,-43.02 8.64,-13.35 24.96,-19.55 40.29,-15.29 15.33,4.25 26.12,17.97 26.64,33.87 16.01,5.93 23.99,-11.16 23.93,-51.28 3.96,-11.1 13.61,-19.2 25.23,-21.18 11.62,-1.98 23.41,2.46 30.83,11.61 35.78,33.17 78.85,44.1 129.22,32.81 3.82,44.75 -7.89,97.58 -40.02,129.84 -32.12,32.27 -71.83,38.32 -115.86,26.72l-5.01 32.12z"/>
   <path class="fil3" d="M2365.7 2147.12l-1341.05 0c-3.79,6.64 -7.71,13.23 -11.76,19.76l1352.81 0 0 -19.76z"/>
   <polygon class="fil8" points="2035.71,2021.81 2214.83,2021.81 2194.32,2147.12 2068.52,2147.12 "/>
   <polygon class="fil7" points="2024.77,1752.45 1576.28,1752.45 1447.51,2117.52 1896,2117.52 "/>
   <polygon class="fil8" points="1576.28,1752.45 1539.91,1752.45 1400.7,2147.12 1885.55,2147.12 1896,2117.52 1447.51,2117.52 "/>
   <polygon class="fil8" points="1164.73,2115.28 1437.51,2115.28 1437.51,2147.12 1164.73,2147.12 "/>
   <path class="fil10" d="M1739.8 1894.97c23.4,0 39.89,21.42 36.82,47.85 -3.07,26.43 -24.52,47.86 -47.93,47.86 -23.41,0 -39.9,-21.43 -36.83,-47.86 3.07,-26.43 24.52,-47.85 47.93,-47.85z"/>
   <path class="fil4" d="M2078.09 2021.81c-33.96,-15.2 -53.67,-48.93 -42.39,-97.79 15.04,-0.5 35.09,-0.84 60.85,16.06 -4.28,-25.25 7.05,-50.6 28.72,-64.26 21.67,13.66 32.99,39.01 28.71,64.26 25.75,-16.9 45.81,-16.55 60.85,-16.06 11.28,48.86 -8.43,82.6 -42.39,97.79l-94.35 0z"/>
   <path class="fil11" d="M2074.36 2431.96l0 0c0,28.2 23.07,51.27 51.27,51.27l0 0c-28.2,0 -51.27,23.07 -51.27,51.27l0 0c0,-28.2 -23.08,-51.27 -51.27,-51.27l0 0c28.2,0 51.27,-23.07 51.27,-51.27z"/>
   <path class="fil11" d="M2353.99 1721.63l0 0c0,22.56 18.46,41.02 41.02,41.02l0 0c-22.56,0 -41.02,18.46 -41.02,41.02l0 0c0,-22.56 -18.46,-41.02 -41.02,-41.02l0 0c22.56,0 41.02,-18.46 41.02,-41.02z"/>
   <path class="fil11" d="M1329.4 1208.33l0 0c0,26.32 21.53,47.85 47.85,47.85l0 0c-26.32,0 -47.85,21.53 -47.85,47.85l0 0c0,-26.32 -21.53,-47.85 -47.85,-47.85l0 0c26.32,0 47.85,-21.54 47.85,-47.85z"/>
   <path class="fil11" d="M351.92 2315.38l0 0c0,28.2 23.08,51.27 51.27,51.27l0 0c-28.2,0 -51.27,23.08 -51.27,51.27l0 0c0,-28.2 -23.07,-51.27 -51.27,-51.27l0 0c28.2,0 51.27,-23.07 51.27,-51.27z"/>
   <path class="fil0" d="M1016.01 225.25c87.87,-33.7 160.37,-18.27 238.51,85.01 -541.91,1.73 -812.87,2.6 -812.87,2.6 161.37,-37.91 176.42,-68.77 236.48,-136.4 62.78,-70.7 148.45,-43.91 223.6,25.42 33.04,30.47 75.7,38.16 114.27,23.37z"/>
   <path class="fil11" d="M2429.44 766.43l-847.74 0c-33.09,0 -60.16,27.07 -60.16,60.16l0 389.18c-5.75,88.66 29.51,149.42 105.79,182.28 -42.05,-43.23 -44.76,-76.76 -36.09,-105.2l838.2 0c33.09,0 60.16,-27.07 60.16,-60.16l0 -406.1c0,-33.09 -27.07,-60.16 -60.16,-60.16z"/>
   <path class="fil7" d="M2429.44 766.43l-847.74 0c-33.09,0 -60.16,27.07 -60.16,60.16l0 27.92 968.06 0 0 -27.92c0,-33.09 -27.07,-60.16 -60.16,-60.16z"/>
   <path class="fil0" d="M2426.16 800.49c8.5,0 15.39,6.89 15.39,15.39 0,8.5 -6.89,15.38 -15.39,15.38 -8.5,0 -15.38,-6.89 -15.38,-15.38 0,-8.5 6.89,-15.39 15.38,-15.39z"/>
   <path class="fil0" d="M2375.57 800.49c8.5,0 15.39,6.89 15.39,15.39 0,8.5 -6.89,15.38 -15.39,15.38 -8.5,0 -15.38,-6.89 -15.38,-15.38 0,-8.5 6.88,-15.39 15.38,-15.39z"/>
   <path class="fil0" d="M2324.98 800.49c8.5,0 15.39,6.89 15.39,15.39 0,8.5 -6.89,15.38 -15.39,15.38 -8.5,0 -15.38,-6.89 -15.38,-15.38 0,-8.5 6.89,-15.39 15.38,-15.39z"/>
   <polygon class="fil0" points="2152.36,916.7 2358.82,916.7 2358.82,1095.82 2152.36,1095.82 "/>
   <polygon class="fil0" points="2096.3,963.19 1809.16,963.19 1809.16,983.7 2096.3,983.7 "/>
   <polygon class="fil0" points="2090.83,1060.27 1647.82,1060.27 1647.82,1073.94 2090.83,1073.94 "/>
   <polygon class="fil0" points="1652.6,1152.55 2371.81,1152.55 2371.81,1179.9 1652.6,1179.9 "/>
   <polygon class="fil11" points="194.38,773.7 361.87,773.7 361.87,932.31 194.38,932.31 "/>
   <polygon class="fil11" points="411.09,783.27 790.53,783.27 790.53,814.04 411.09,814.04 "/>
   <polygon class="fil11" points="619.95,838.3 788.82,838.3 788.82,868.39 619.95,868.39 "/>
   <polygon class="fil11" points="411.09,838.3 579.96,838.3 579.96,868.39 411.09,868.39 "/>
   <polygon class="fil11" points="411.09,894.03 702.35,894.03 702.35,924.79 411.09,924.79 "/>
   <path class="fil12" d="M1535.81 55.92c22.22,-8.52 43.49,-9.12 64.09,-1.08 19.21,7.49 37.98,22.5 56.54,45.59l-394.75 1.26c22.76,-8.07 40.23,-17.09 54.73,-27.49 19.31,-13.83 33.32,-30.06 47.57,-49.63 12.13,-16.67 28.37,-19.45 46.51,-14.63 19.12,5.09 40.47,18.43 61.56,33.23 10.08,7.07 20.49,12.31 31.06,14.77 10.81,2.52 21.77,2.17 32.69,-2.01zm66.9 -8.29c-22.49,-8.78 -45.61,-8.17 -69.65,1.05 -9.39,3.6 -18.83,3.89 -28.18,1.71 -9.58,-2.23 -19.11,-7.05 -28.4,-13.56 -21.71,-15.23 -43.79,-28.99 -64.02,-34.37 -21.21,-5.64 -40.28,-2.26 -54.72,17.56 -13.77,18.92 -27.28,34.58 -45.85,47.87 -18.59,13.32 -42.33,24.35 -76.58,34.01l1.04 7.58 435.72 -1.39 -4.66 -6.17c-21.02,-27.77 -42.49,-45.63 -64.71,-54.3z"/>
   <path class="fil0" d="M2685.62 1413.3l0 0c0,22.56 18.46,41.02 41.02,41.02l0 0c-22.56,0 -41.02,18.46 -41.02,41.02l0 0c0,-22.56 -18.46,-41.02 -41.02,-41.02l0 0c22.56,0 41.02,-18.46 41.02,-41.02z"/>
   <path class="fil0" d="M365.34 1283.25l0 0c0,27.63 22.61,50.23 50.23,50.23l0 0c-27.63,0 -50.23,22.61 -50.23,50.23l0 0c0,-27.63 -22.61,-50.23 -50.23,-50.23l0 0c27.63,0 50.23,-22.61 50.23,-50.23z"/>
   <path class="fil0" d="M184.45 1470.25l0 0c0,14.05 11.5,25.55 25.55,25.55l0 0c-14.05,0 -25.55,11.5 -25.55,25.55l0 0c0,-14.05 -11.5,-25.55 -25.55,-25.55l0 0c14.05,0 25.55,-11.5 25.55,-25.55z"/>
   <polygon class="fil7" points="696.85,3222.33 440.88,3269.08 391.85,3212.07 717.37,3214.35 512.14,3391.65 452.85,3312.98 "/>
   <polygon class="fil8" points="416.36,3270.79 431.75,3355.74 463.88,3327.61 452.85,3312.98 696.85,3222.33 "/>
   <polygon class="fil7" points="2404.26,298.49 2183.4,436.07 2116.84,401.08 2420.41,283.52 2294.73,523.86 2210.67,472.49 "/>
   <polygon class="fil8" points="2161.23,446.67 2206.77,520.01 2226.31,482.05 2210.67,472.49 2404.26,298.49 "/>
  </g>
 </g>
</svg>
