<?xml version="1.0" encoding="UTF-8"?>
<!DOCTYPE svg PUBLIC "-//W3C//DTD SVG 1.1//EN" "http://www.w3.org/Graphics/SVG/1.1/DTD/svg11.dtd">
<!-- Creator: CorelDRAW 2018 (64-Bit) -->
<svg xmlns="http://www.w3.org/2000/svg" xml:space="preserve" width="4.00001in" height="4.54677in" version="1.1" style="shape-rendering:geometricPrecision; text-rendering:geometricPrecision; image-rendering:optimizeQuality; fill-rule:evenodd; clip-rule:evenodd"
viewBox="0 0 3638.62 4135.98"
 xmlns:xlink="http://www.w3.org/1999/xlink">
 <defs>
  <style type="text/css">
   <![CDATA[
    .fil8 {fill:#FEFEFE}
    .fil2 {fill:#0AC5E6}
    .fil6 {fill:#0B94C2}
    .fil10 {fill:#303348}
    .fil5 {fill:#303348}
    .fil12 {fill:#303348}
    .fil9 {fill:#40475A}
    .fil11 {fill:#40475A}
    .fil3 {fill:#87C6FD}
    .fil1 {fill:#D2E3FF}
    .fil0 {fill:#D2E3FF}
    .fil7 {fill:#EAD0C7}
    .fil4 {fill:#EAD0C7}
    .fil14 {fill:#EEE343}
    .fil13 {fill:#FEFEFE;fill-rule:nonzero}
   ]]>
  </style>
 </defs>
 <g id="Layer_x0020_1">
  <metadata id="CorelCorpID_0Corel-Layer"/>
  <g id="_1978747950144">
   <ellipse class="fil0" cx="2005.25" cy="3807.75" rx="1633.37" ry="145.39"/>
   <path class="fil1" d="M1543.4 1234.63c-447.04,-25.61 -615.9,-471.1 -497.53,-1234.2l1321.12 -0.43c-83.73,100.07 -151.54,215.62 -199.84,347.2 -64.02,-2.57 -122.07,-0.36 -174.16,6.66 60.48,4.54 112.56,22.11 154.19,52.21l-0.01 0.02c-41.44,-29.96 -93.24,-47.52 -153.39,-52.16 -209.16,10.69 -453.23,200.08 -533.69,529.09l484.53 -42.49c-53.04,204.39 -199.45,338.18 -401.23,394.08z"/>
   <path class="fil2" d="M2107.92 1231.38c-307.92,36.13 -507.42,35.56 -564.76,3.32 240.09,-66.44 401.88,-243.1 421.3,-517.73l292.75 -8.65c-3.63,51.75 -13.91,108.9 -31.56,171.33 -39.15,138.52 -81.76,254.6 -117.73,351.73z"/>
   <path class="fil3" d="M1460.1 883.03c80.46,-329.01 324.53,-518.4 533.69,-529.09 174.45,13.45 278.73,135.44 263.39,354.38l-292.71 8.64c-3.09,43.69 -9.79,84.89 -19.83,123.58l-484.53 42.49z"/>
   <path class="fil0" d="M2027.52 1483.01c20.87,-125.29 116.93,-316.08 198.13,-603.36 92.43,-327 -16.44,-509.54 -232.65,-525.78 157.86,-21.28 370.44,1.6 637.92,67.8 279.51,69.17 426.09,194.19 430.71,376.19 3.76,148.33 -92.86,288.75 -221.72,468.88 -93.36,130.5 -189.18,243.26 -228.05,420.57 -14.62,66.69 40.34,106.65 99.01,135.55 138.88,68.39 198.21,165.88 167.19,261.7 -31.52,97.37 -164.25,152.25 -374.38,179.92 -84.44,11.12 -124.09,93.35 -119.95,239.89 -66.62,6.64 -130.83,7.25 -192.64,1.82 20.27,-148.02 91.48,-227.29 210.81,-252.61 173.36,-36.79 219.83,-108.55 139.93,-198.09 -35.21,-39.46 -92.24,-75.91 -170.83,-105.41 -264.33,-99.22 -379.2,-252.67 -343.48,-467.06z"/>
   <path class="fil4" d="M1777.57 1463.7c-0.96,2.45 1.35,7.75 6.48,9.55 -12.28,29.52 25.95,16.87 29.83,25.24 0,0 -1.51,24.84 -4.54,74.51 -34.95,-2.86 -67.97,1.08 -99.04,11.81 48.48,80.6 166.82,90.7 275.23,-0.97 -10.6,-7.23 -17.51,-13.78 -28.08,-19.92 0.61,-88.44 0.91,-132.67 0.91,-132.67 1.97,-11.3 1.91,-23.03 0.01,-35.3 10.02,1.59 3.18,-32.96 -6.59,-17.21 -7.73,-26.17 -20.66,-57.57 -41.33,-89.78 -4.99,-7.78 -8.03,-12.34 -17.72,-8.18 -45.12,19.39 -86.67,30.78 -118.82,26.41 -23.8,86.29 -35.73,121.56 -16.06,122.23 0,0 2.11,0.08 17.67,2.18 7.36,0.99 5.89,22.27 2.04,32.08z"/>
   <path class="fil5" d="M1958.36 1431.26c1.97,-11.3 1.91,-23.03 0.01,-35.3 10.02,1.59 3.18,-32.96 -6.59,-17.21 -7.73,-26.17 -20.66,-57.57 -41.33,-89.78 -4.99,-7.78 -8.03,-12.34 -17.72,-8.18 -67.84,29.15 -127.63,40.25 -159.48,6.81 -33.69,-35.38 -31.34,-114.72 37.71,-135.39 154.44,-46.22 254.29,-2.76 264.43,77.69 12.39,98.34 -20.94,164.11 -77.03,201.34z"/>
   <path class="fil6" d="M1656.61 2485.42l0 -7.31c250.37,-17.5 437.54,-53.01 566.79,-97.71l2.57 4.58 -23.9 87.45c-181.75,3.08 -363.92,8.06 -545.46,12.98zm-263.24 -570.75c70.47,-174.43 176.1,-284.41 316.92,-329.86 48.48,80.6 166.82,90.7 275.23,-0.97 194.44,95.05 309.01,224.23 343.72,387.54l-2.84 1.11 -2.8 1.09 -0.04 0.01 -2.84 1.11 -2.66 1.03 -0.18 0.07 -2.84 1.11 -2.44 0.95 -0.4 0.15 -2.84 1.11 -2.13 0.83 -0.71 0.28 -2.84 1.11 -1.73 0.68 -1.11 0.43 -2.84 1.11 -1.24 0.48 -1.6 0.62 -2.84 1.11 -0.66 0.26 -2.17 0.85 -2.84 1.11 0 0 -2.84 1.11 -2.08 0.81 -0.76 0.3 -2.84 1.1 -1.24 0.49 -1.6 0.62 -2.84 1.11 -0.31 0.12 -2.53 0.99 -2.13 0.83 -0.71 0.28 -2.84 1.11 -1.02 0.4 -1.82 0.71 -2.66 1.04 -0.18 0.07 -2.84 1.11 -1.37 0.53 -1.47 0.57 -2.84 1.11 0 0 -4.22 1.64 -1.46 0.57 -2.66 1.04 -0.18 0.07 -2.84 1.11 -1.02 0.4 -1.82 0.71 -2.13 0.83 -0.71 0.28 -2.84 1.11 -0.31 0.12 -2.53 0.98 -1.24 0.49 -1.6 0.62 -2.08 0.82 -0.76 0.29 -2.84 1.11 0 0 -2.84 1.11 -0.66 0.26 -2.18 0.85 -1.24 0.49 -1.6 0.62 -1.73 0.67 -1.11 0.43 -2.13 0.83 -0.71 0.28 -2.44 0.95 -0.4 0.15 -2.66 1.04 -0.18 0.07 -2.8 1.09 -0.04 0.02 -2.84 1.11 -0 0 -2.79 1.09 -0.05 0.02 -2.66 1.04 -0.18 0.07 -2.44 0.95 -0.4 0.16 -2.13 0.83 -0.71 0.28 -1.73 0.68 -1.11 0.43 -1.24 0.48 -1.6 0.62 -0.67 0.26 -2.17 0.85 -2.09 0.81 -0.75 0.29 -1.24 0.48 -1.6 0.63 -0.31 0.12 -1.82 0.71 -0.71 0.28 -1.02 0.4 -1.64 0.64 -0.18 0.07 -1.38 0.54 -1.46 0.57 -1.37 0.54 -1.29 0.5 -0.18 0.07 -1.02 0.4 -1.11 0.43 -0.71 0.28 -0.31 0.12 -0.93 0.36 -0.85 0.33 -0.75 0.29 -0.67 0.26 -0.58 0.23 -0.49 0.19 -0.4 0.15 -0.31 0.12 -0.22 0.09 -0.13 0.05 -0.05 0.01c3.64,141.76 5.45,212.63 5.45,212.63l-496.35 146.72 0 -444.32 -263.24 -42.64z"/>
   <path class="fil7" d="M1656.61 2401.62l496.35 -146.72c0,0 -1.82,-70.88 -5.45,-212.63 60.57,-23.63 121.16,-47.25 181.73,-70.88 47.41,233.15 24.3,357.48 -60.41,391.98 -129.21,52.64 -330.81,95.07 -612.23,114.73l0 -76.49z"/>
   <path class="fil2" d="M1007.81 1852.22l648.8 105.09 0 528.11c-76.89,2.08 -153.66,4.15 -230.25,6.06 -33.51,-38.45 -75.82,-59.37 -125.2,-63.06 -35.22,-2.63 -66.58,15.9 -90.67,56.22l-186.57 -27.24 -16.12 -605.18z"/>
   <ellipse class="fil8" transform="matrix(0.575386 -0 0.110448 0.562578 1321.46 2188.17)" rx="52.12" ry="90.02"/>
   <path class="fil9" d="M2515.07 2469.37c-361.6,0.52 -727.3,13.1 -1088.7,22.1 19.67,22.57 36.31,51.17 49.58,85.87 66.64,17.57 162.28,22.18 286.93,13.8 42.02,97.89 368.24,143.54 775.03,143.54 420.05,0 760.56,-40.31 766.02,-140.85 4.29,-79.18 -212.77,-110.85 -510.37,-120.74 -0.29,31.86 -0.65,64.79 -1.08,98.8 -184.77,-0.61 -277.15,-0.91 -277.15,-0.91l-0.27 -101.62z"/>
   <path class="fil10" d="M2300.75 2728.93l0 1049.83 450.7 0 0 -1047.95c-67.77,2.62 -139.41,3.89 -213.54,3.89 -82.99,0 -162.61,-1.9 -237.16,-5.76z"/>
   <path class="fil3" d="M2794.31 2212.07c-129.39,-29 -222.69,-24.45 -279.88,13.63 147.06,9.83 240.36,5.29 279.88,-13.63z"/>
   <path class="fil2" d="M2794.31 2212.07c0.52,102.38 -0.09,222.32 -1.82,359.84 -184.77,-0.61 -277.15,-0.91 -277.15,-0.91 -0.61,-230.2 -0.91,-345.3 -0.91,-345.3 147.06,9.83 240.36,5.29 279.88,-13.63z"/>
   <path class="fil2" d="M2514.92 2413.73c0.06,24.23 0.09,32.71 0.09,32.71 -101.81,-55.28 -101.98,-123.43 -0.54,-204.45 0.08,30.9 0.11,42.71 0.11,42.71 -20.09,9.57 -47.09,45.87 -46.7,66.34 0.37,20.04 15.94,45.94 47.04,62.69z"/>
   <path class="fil10" d="M930.44 2795.56c-69.4,336.91 -133.94,618.6 -180.83,847.79 0,0 35.44,0.61 106.31,1.82 134.04,-273.92 248.82,-507.2 343.09,-685.03 -32.07,-137.21 -43.1,-252.74 -28.47,-350.31 -36.36,7.11 -70.94,13.97 -103.79,20.35 -75.16,14.58 -116.53,69.32 -136.31,165.38zm584.27 107.64c146.34,2 269.26,-5.76 347.11,-25.86 128.13,-33.07 182.94,-98.01 180.63,-173.04 -153.58,-23.48 -257.13,-60.86 -279.57,-113.15 -124.67,8.37 -220.3,3.76 -286.94,-13.82 8.17,21.35 15.06,45.01 20.59,70.99 14.05,66.01 19.86,151.03 18.19,254.88z"/>
   <path class="fil9" d="M1387.49 3528.83c44.83,0 67.24,0 67.24,0 59.66,-416.8 77.84,-711.16 41.8,-880.51 -29.83,-140.15 -99.16,-212.72 -195.36,-219.9 -55.57,-4.15 -101.55,44.37 -124.49,148.12 -46.96,212.34 41.43,515.27 210.82,952.3z"/>
   <path class="fil11" d="M1514.94 2883.93l-0.01 0 -0.05 6.58 0.06 -6.58zm-2.76 98.3c70.76,5.08 70.64,1.55 250.64,4.41 180,2.85 430.97,-37.25 430.51,-74.82 -0.45,-37.58 -123.72,-33.37 -293.89,-45.82 -11.76,4.11 -24.28,7.9 -37.61,11.34 -77.85,20.09 -200.78,27.86 -347.11,25.86 -0.41,25.23 -1.25,51.57 -2.54,79.03z"/>
   <path class="fil12" d="M1691.95 2985.72l0 744.25c-19.19,2.93 -32.48,9.3 -32.48,16.67 0,10.16 25.22,18.4 56.34,18.4 31.11,0 56.34,-8.24 56.34,-18.4 0,-6.35 -9.82,-11.94 -24.77,-15.25l0 -744.99c-20.95,-0.31 -39.28,-0.53 -55.43,-0.68z"/>
   <path class="fil13" d="M2631.71 2170.75c-1.5,6.22 -7.78,10.04 -14,8.54 -6.22,-1.5 -10.04,-7.78 -8.54,-14 19.13,-78.02 41.39,-138.98 66.73,-182.63 -15.54,-24.83 -26.74,-54.94 -29.91,-86.76 -0.37,-3.75 -0.64,-7.56 -0.78,-11.43 -1.55,-40.73 -0.37,-73.74 3.91,-102.91 4.34,-29.57 11.84,-55.27 22.9,-81.05 2.51,-5.89 9.33,-8.64 15.22,-6.13 5.89,2.51 8.64,9.33 6.13,15.22 -10.25,23.91 -17.22,47.8 -21.26,75.32 -4.1,27.92 -5.21,59.58 -3.73,98.73 0.12,3.3 0.36,6.63 0.69,9.98 2.4,24.12 10.06,47.15 20.88,67.07 28.55,-40.35 61,-61.22 97.37,-62.33 43.66,-1.33 72,12.12 86,31.45 6.86,9.46 10.29,20.29 10.44,31.54 0.14,10.87 -2.85,22.05 -8.82,32.64 -14.79,26.2 -48.47,49.26 -98.43,54.25l-3.86 0.26c-28,1.07 -58,-16.6 -81.78,-45.14 -22.13,40.96 -41.86,96.82 -59.16,167.38zm156.25 -249.21c-30.72,0.94 -58.86,21.17 -84.41,60.41 1.6,2.13 3.22,4.2 4.89,6.21 19.39,23.41 42.74,37.97 63.4,37.19l2.41 -0.17c41.64,-4.15 69.04,-22.2 80.52,-42.54 3.95,-6.99 5.92,-14.18 5.83,-21.01 -0.09,-6.44 -2.08,-12.68 -6.07,-18.18 -9.84,-13.58 -31.56,-22.98 -66.57,-21.91z"/>
   <path class="fil14" d="M3445.08 3458.83c-41.9,0 -75.87,33.97 -75.87,75.88 0,41.9 33.97,75.87 75.87,75.87 18.98,0 36.34,-6.97 49.64,-18.49l33.56 35.98c4.64,4.99 12.45,5.27 17.44,0.63 4.99,-4.64 5.27,-12.45 0.63,-17.44l-35.73 -38.3c6.57,-11.23 10.34,-24.3 10.34,-38.25 0,-41.9 -33.97,-75.88 -75.87,-75.88zm0 28.17c-26.35,0 -47.71,21.36 -47.71,47.71 0,26.35 21.36,47.7 47.71,47.7 26.35,0 47.71,-21.36 47.71,-47.7 0,-26.35 -21.36,-47.71 -47.71,-47.71z"/>
   <path class="fil14" d="M997.82 1430.7c-73.86,0 -133.74,59.87 -133.74,133.73 0,73.86 59.88,133.73 133.74,133.73 33.45,0 64.05,-12.28 87.49,-32.59l63.25 58.22c8.18,8.79 21.94,9.29 30.73,1.11 8.79,-8.18 9.29,-21.94 1.11,-30.73l-67.08 -62.33c11.58,-19.8 18.23,-42.83 18.23,-67.43 0,-73.86 -59.87,-133.73 -133.73,-133.73zm0 39.17c-52.23,0 -94.57,42.34 -94.57,94.56 0,52.23 42.34,94.56 94.57,94.56 52.23,0 94.56,-42.34 94.56,-94.56 0,-52.23 -42.34,-94.56 -94.56,-94.56z"/>
   <circle class="fil3" cx="290.27" cy="1397.14" r="34.07"/>
   <circle class="fil3" cx="1027.89" cy="955.75" r="18.85"/>
   <circle class="fil3" cx="3305.06" cy="805.14" r="35.89"/>
   <circle class="fil3" cx="3178.98" cy="957.12" r="18.63"/>
   <circle class="fil3" cx="2917.29" cy="3207.02" r="40.44"/>
   <circle class="fil3" cx="3075.18" cy="3139.55" r="17.49"/>
   <circle class="fil3" cx="1535.28" cy="4117.43" r="18.55"/>
   <polygon class="fil2" points="486.15,3665.44 78.15,3739.95 -0,3649.08 518.86,3652.71 191.73,3935.32 97.23,3809.92 "/>
   <polygon class="fil6" points="39.08,3742.67 63.61,3878.07 114.81,3833.24 97.23,3809.92 486.15,3665.44 "/>
   <polygon class="fil2" points="3306.09,1088.61 2854.74,1333.11 2727.88,1256.26 3339.68,1061.07 3055.3,1537.46 2903.02,1421.17 "/>
   <polygon class="fil6" points="2809.83,1351.34 2890.74,1501.2 2927.27,1439.68 2903.02,1421.16 3305.81,1088.83 3306.08,1088.61 2849.85,1330.15 2849.85,1330.15 "/>
   <path class="fil8" d="M2571.61 514.13c-180.53,-7.88 -270.79,-11.81 -270.79,-11.81 66.78,79.39 79.5,172.38 38.16,278.97 190.82,9.69 286.24,14.54 286.24,14.54 65.33,-119.77 47.46,-213.67 -53.61,-281.69z"/>
   <path class="fil8" d="M2231.75 1161.11c55.13,-159.32 82.69,-238.98 82.69,-238.98 157.51,24.23 236.26,36.35 236.26,36.35 -67.85,153.26 -101.77,229.9 -101.77,229.9 -144.78,-18.17 -217.17,-27.26 -217.17,-27.26z"/>
   <path class="fil8" d="M2235.93 1774.25l110.3 2.95c-33.86,-29.77 -49.61,-77.93 -47.26,-144.47 -116.92,-2.42 -175.38,-3.64 -175.38,-3.64 1.21,14.87 3.28,29.01 6.19,42.42 41.51,31.62 76.89,65.87 106.14,102.73z"/>
   <path class="fil8" d="M2666.07 572.29c5.45,12.72 8.18,19.08 8.18,19.08 0,0 79.36,17.87 238.07,53.61 0,0 -1.82,-9.69 -5.45,-29.08 0,0 -80.27,-14.54 -240.8,-43.62z"/>
   <path class="fil8" d="M2958.67 738.58c-174.47,-29.08 -261.7,-43.62 -261.7,-43.62 1.51,-9.72 1.21,-19.41 -0.91,-29.08 0,0 88.14,10.6 264.43,31.81 1.77,12.46 1.16,26.09 -1.82,40.89z"/>
   <path class="fil8" d="M2901.41 823.1c-143.57,-16.36 -215.36,-24.53 -215.36,-24.53 5.25,-7.07 8.43,-19.18 9.54,-36.35 145.39,19.39 218.09,29.08 218.09,29.08 -2.32,15.57 -6.41,26.17 -12.27,31.8z"/>
   <path class="fil8" d="M2590.64 1015.74c3.03,-15.15 4.54,-22.72 4.54,-22.72 189.37,19.83 286.29,31.35 290.78,34.53 3.51,16.33 1.69,28.75 -5.45,37.26 -193.25,-32.72 -289.87,-49.07 -289.87,-49.07z"/>
   <path class="fil8" d="M2548.84 1104.34c8.86,-9.66 13.4,-17.39 13.63,-23.17 181.44,30.29 272.15,45.43 272.15,45.43 -1.64,9.98 -4.36,18 -8.18,24.08 -185.07,-30.89 -277.61,-46.34 -277.61,-46.34z"/>
   <path class="fil8" d="M2507.49 1203.39c6.05,-11.69 9.68,-19.56 10.91,-23.62 103.59,15.75 155.39,23.63 155.39,23.63 -2.49,13.49 -4.91,22.58 -7.27,27.26 -106.02,-18.18 -159.02,-27.26 -159.02,-27.26z"/>
   <path class="fil8" d="M2527.93 1697.26c-132.97,-11.51 -199.46,-17.27 -199.46,-17.27 -3.08,-8.34 -4.44,-18.33 -4.09,-29.99 136.91,16.36 205.37,24.54 205.37,24.54 -2.34,8.73 -2.94,16.31 -1.82,22.72z"/>
   <path class="fil8" d="M2532.48 1744.06c-2.22,-9.97 -2.83,-16.79 -1.82,-20.45 0,0 -66.49,-6.36 -199.46,-19.08 -0.25,11.93 1.87,20.86 6.36,26.81 129.95,8.48 194.92,12.72 194.92,12.72z"/>
   <path class="fil8" d="M2589.5 1828.57c-0.98,-3.93 -0.91,-8.78 0.23,-14.54 0,0 -74.06,-7.27 -222.17,-21.81 2.27,11.04 4.99,20.28 8.18,27.72 142.51,5.76 213.76,8.63 213.76,8.63z"/>
   <path class="fil8" d="M2148.91 1552.52c56.69,6.7 102.77,10.14 138.22,9.59 13.94,-0.21 24.85,-12.18 24.6,-26.11 -0.25,-13.94 -11.57,-25.14 -25.51,-25.23 -0.8,-26.6 -8.38,-46.94 -48.09,-50.29 -26.52,-2.24 -50.29,16.38 -55.04,42.56 -30.33,-12.69 -63.33,19.48 -59.33,34.82 1.74,6.68 5.4,12.32 25.15,14.66z"/>
   <path class="fil4" d="M785.17 3643.96c-12.71,25.56 -20.47,54.22 -16.08,85.33 3.12,22.06 17.72,20.43 35.89,0.45 8.67,-9.53 17.06,-37.16 23.01,-85.05l-42.82 -0.73z"/>
   <path class="fil5" d="M692.76 3847.87c-20.96,-49.8 4.28,-103.76 57.7,-151.29 7.38,-6.57 14.52,-12.15 21.32,-16.74 -3.82,15.65 -5.14,32.17 -2.69,49.45 3.12,22.06 17.72,20.43 35.89,0.45 7.28,-8 14.35,-28.73 19.95,-63.47 7.89,3.31 13.95,10.22 17.76,20.76 11.35,31.42 -0.78,74.79 -35.44,119.49 -50.39,64.98 -98.38,79.61 -114.49,41.34z"/>
   <path class="fil4" d="M1443.34 3528.83c10.06,42.23 8.17,71.58 -9.09,72.77 -24.15,1.67 -31.71,-26.38 -22.97,-72.77l32.06 0z"/>
   <path class="fil5" d="M1423.81 3722.91c-44.78,-79.62 -40.49,-130.22 -15.78,-153.71 1.54,21.61 10.25,33.51 26.23,32.41 13.7,-0.95 17.71,-19.64 13.75,-48.43 33.21,-2.3 47.31,24.08 47.59,91.58 0.46,113.04 -33.78,145.71 -71.79,78.15z"/>
   <polygon class="fil6" points="2983,2434.94 2702.27,2434.94 2734.41,2631.35 2931.57,2631.35 "/>
   <path class="fil14" d="M2916.57 2434.94c53.22,-23.82 84.11,-76.7 66.44,-153.28 -23.57,-0.77 -55,-1.32 -95.37,25.17 6.71,-39.58 -11.04,-79.31 -45.01,-100.72 -33.96,21.41 -51.71,61.14 -45.01,100.72 -40.36,-26.49 -71.8,-25.95 -95.37,-25.17 -17.67,76.58 13.22,129.46 66.44,153.28l147.87 0z"/>
  </g>
 </g>
</svg>
